# xmcd CD database file
#
# Track frame offsets:
#	150
#	19800
#	38935
#	58500
#	76650
#	96320
#	113442
#	130585
#	152175
#	170925
#	193660
#
# Disc length: 2825 seconds
#
# Revision: 1
# Processed by: cddbd v1.5.1PL0 Copyright (c) Steve Scherf et al.
# Submitted via: CDex 1.51
#
DISCID=880b070b
DTITLE=Various Artist - Merengue de Hoy
DYEAR=2004
DGENRE=Salsa
TTITLE0=Eddy Herrera - Si tu amor No Vuelve
TTITLE1=Zafra Negra - Pa' la rumba voy
TTITLE2=Eddy Herrera and Magic Juan - La ultima vez
TTITLE3=Mala Fe- Un ladrón
TTITLE4=Rikarena - Bailemos todos
TTITLE5=Enrique Feliz - Mi sepelio
TTITLE6=Anthony - Que llueva pa'rriba
TTITLE7=Miguel Angel - De hoy en adelante
TTITLE8=Omar Enrique - Entre tu y yo
TTITLE9=Nicol Peña - La cartera
TTITLE10=Papi Sanchez - Enamorame
EXTD=YEAR: 2004
EXTT0=
EXTT1=
EXTT2=
EXTT3=
EXTT4=
EXTT5=
EXTT6=
EXTT7=
EXTT8=
EXTT9=
EXTT10=
PLAYORDER=
